<svg xmlns="http://www.w3.org/2000/svg" xmlns:xlink="http://www.w3.org/1999/xlink" version="1.1" x="0px" y="0px" viewBox="0 0 124.167 139.965" enable-background="new 0 0 124.167 139.965" xml:space="preserve"><g><path d="M124.167,62c0-34.187-27.851-62-62.083-62C27.851,0,0,27.813,0,62c0,29.586,20.864,54.382,48.667,60.525v5.564   c0,6.627,5.373,12,12,12H63.5c6.627,0,12-5.373,12-12v-5.564C103.303,116.383,124.167,91.587,124.167,62z M74.656,87.06   c-1.757-4.446-6.084-7.598-11.155-7.598h-2.833c-5.072,0-9.398,3.151-11.155,7.598C40.322,82.446,33.999,72.949,33.999,62   c0-15.46,12.599-28.037,28.085-28.037c15.486,0,28.084,12.577,28.084,28.037C90.168,72.949,83.845,82.446,74.656,87.06z    M75.5,112.242V97.593C89.899,92.161,100.168,78.259,100.168,62c0-20.974-17.085-38.037-38.084-38.037   c-21,0-38.085,17.063-38.085,38.037c0,16.258,10.27,30.161,24.668,35.592v14.649C26.43,106.317,10,86.042,10,62   c0-28.673,23.365-52,52.084-52s52.083,23.327,52.083,52C114.167,86.042,97.737,106.317,75.5,112.242z"></path><ellipse cx="62.083" cy="62" rx="14.674" ry="14.654"></ellipse></g></svg>